<svg xmlns="http://www.w3.org/2000/svg" viewBox="0 0 32 32" shape-rendering="crispEdges">
  <rect width="32" height="32" fill="#1b1430"/>
  <rect x="0" y="24" width="32" height="8" fill="#2e2150"/>
  <rect x="0" y="24" width="32" height="2" fill="#ffe14d"/>
  <!-- checkered flag -->
  <g fill="#fff6e8">
    <rect x="22" y="3" width="4" height="4"/>
    <rect x="30" y="3" width="2" height="4"/>
    <rect x="26" y="7" width="4" height="4"/>
    <rect x="22" y="11" width="4" height="4"/>
    <rect x="30" y="11" width="2" height="4"/>
  </g>
  <g fill="#0e0a1c">
    <rect x="26" y="3" width="4" height="4"/>
    <rect x="22" y="7" width="4" height="4"/>
    <rect x="30" y="7" width="2" height="4"/>
    <rect x="26" y="11" width="4" height="4"/>
  </g>
  <rect x="20" y="5" width="2" height="12" fill="#b9a6e0"/>
  <rect x="21" y="4" width="3" height="2" fill="#ff5d8f"/>
  <!-- pixel racer -->
  <rect x="4" y="14" width="8" height="6" fill="#2ee6c0"/>
  <rect x="10" y="11" width="5" height="5" fill="#2ee6c0"/>
  <rect x="12" y="12" width="2" height="2" fill="#0e0a1c"/>
  <rect x="5" y="20" width="3" height="3" fill="#3a2740"/>
  <rect x="9" y="21" width="3" height="2" fill="#3a2740"/>
  <rect x="3" y="23" width="10" height="1" fill="#0e0a1c" opacity="0.35"/>
</svg>
